<svg width="36" height="36" viewBox="0 0 36 36" fill="none" xmlns="http://www.w3.org/2000/svg">
<circle cx="18" cy="18" r="18" fill="#4A72FF" fill-opacity="0.6"/>
<path d="M18 6C12.422 6 7.742 9.832 6.406 15H8.47C9.746 10.945 13.53 8 18 8C23.516 8 28 12.484 28 18C28 23.516 23.516 28 18 28C13.531 28 9.746 25.055 8.469 21H6.406C7.742 26.168 12.422 30 18 30C24.617 30 30 24.617 30 18C30 11.383 24.617 6 18 6ZM17.344 13.281L15.906 14.719L18.187 17H6V19H18.188L15.906 21.281L17.344 22.719L21.344 18.719L22.03 18L21.343 17.281L17.344 13.281Z" fill="white"/>
</svg>
