<svg width="39" height="36" viewBox="0 0 39 36" fill="none" xmlns="http://www.w3.org/2000/svg">
<path d="M19.3871 3.06006C10.5716 3.06006 3.35889 9.79506 3.35889 18.0901C3.35889 25.5901 9.22522 31.8151 16.8867 32.9401V22.4401H12.8155V18.0901H16.8867V14.7751C16.8867 11.0101 19.2749 8.94006 22.9454 8.94006C24.6925 8.94006 26.5197 9.22506 26.5197 9.22506V12.9301H24.5001C22.5126 12.9301 21.8875 14.0851 21.8875 15.2701V18.0901H26.3434L25.6221 22.4401H21.8875V32.9401C25.6645 32.3818 29.1038 30.5783 31.5845 27.8551C34.0652 25.132 35.4239 21.6685 35.4153 18.0901C35.4153 9.79506 28.2026 3.06006 19.3871 3.06006Z" fill="#4A72FF"/>
</svg>
